#N canvas 784 419 450 345 10;
#X obj 75 9 inlet head;
#X floatatom 141 30 5 0 0 0 - - -, f 5;
#X floatatom 189 27 5 0 0 0 - - -, f 5;
#X obj 75 99 fader 0 \$1;
#X obj 75 120 fader 1 \$1;
#X obj 75 140 fader 2 \$1;
#X obj 75 161 fader 3 \$1;
#X obj 75 181 fader 4 \$1;
#X obj 75 201 fader 5 \$1;
#X obj 75 222 fader 6 \$1;
#X obj 75 242 fader 7 \$1;
#X obj 75 263 fader 8 \$1;
#X obj 75 283 fader 9 \$1;
#X obj 75 68 poftranslate -324 157;
#X connect 0 0 13 0;
#X connect 1 0 13 1;
#X connect 2 0 13 2;
#X connect 3 0 4 0;
#X connect 4 0 5 0;
#X connect 5 0 6 0;
#X connect 6 0 7 0;
#X connect 7 0 8 0;
#X connect 8 0 9 0;
#X connect 9 0 10 0;
#X connect 10 0 11 0;
#X connect 11 0 12 0;
#X connect 13 0 3 0;
