#N canvas 827 123 542 335 10;
#X declare -path ../;
#X obj 64 87 inlet;
#X obj 64 120 t a a a;
#X msg 116 142 draw 1;
#X obj 116 121 loadbang;
#X floatatom 299 139 5 0 0 0 - - -, f 5;
#X obj 103 173 poftouch 5000 5000;
#X obj 206 57 declare -path ../;
#X text 107 37 CONCERT;
#X obj 29 275 set/instrBar concert;
#X obj 56 247 concert/faders;
#X obj 76 225 topBar Console;
#X obj 83 199 pofimage ../img/ConsoleVide.png 800 600;
#X obj 29 222 t a a;
#X connect 0 0 1 0;
#X connect 1 0 10 0;
#X connect 1 0 12 0;
#X connect 1 1 11 0;
#X connect 1 2 5 0;
#X connect 2 0 5 0;
#X connect 3 0 2 0;
#X connect 12 0 8 0;
#X connect 12 1 9 0;
