#N canvas 305 115 450 300 10;
#X obj 68 46 inlet;
#X obj 158 45 inlet;
#X obj 68 170 outlet;
#X obj 68 132 spigot;
#X obj 101 110 == 0;
#X obj 125 134 spigot;
#X obj 182 135 spigot;
#X obj 239 137 spigot;
#X obj 158 112 == 1;
#X obj 215 113 == 2;
#X obj 272 115 == 3;
#X obj 125 173 outlet;
#X obj 182 172 outlet;
#X obj 239 175 outlet;
#X connect 0 0 3 0;
#X connect 0 0 5 0;
#X connect 0 0 6 0;
#X connect 0 0 7 0;
#X connect 1 0 4 0;
#X connect 1 0 8 0;
#X connect 1 0 9 0;
#X connect 1 0 10 0;
#X connect 3 0 2 0;
#X connect 4 0 3 1;
#X connect 5 0 11 0;
#X connect 6 0 12 0;
#X connect 7 0 13 0;
#X connect 8 0 5 1;
#X connect 9 0 6 1;
#X connect 10 0 7 1;
