#N canvas 581 403 278 223 10;
#X obj 67 139 pofscale 1 1;
#X obj 67 18 inlet;
#X obj 67 165 outlet;
#X obj 101 91 swap;
#X obj 101 115 /;
#X obj 101 46 r ScreenScaleW;
#X obj 122 67 r ScreenScaleH;
#X obj 208 172 outlet;
#X connect 0 0 2 0;
#X connect 1 0 0 0;
#X connect 3 0 4 0;
#X connect 3 1 4 1;
#X connect 4 0 0 1;
#X connect 4 0 7 0;
#X connect 5 0 3 0;
#X connect 6 0 3 1;
