#N canvas 593 205 315 332 10;
#X obj 101 46 r ScreenScaleW;
#X obj 116 68 r ScreenScaleH;
#X obj 101 88 /;
#X obj 101 114 moses 1;
#X obj 144 139 swap 1;
#X obj 144 160 /;
#X msg 101 157 1 \$1;
#X msg 144 182 \$1 1;
#X obj 101 211 unpack f f;
#X obj 67 251 pofscale 1 1;
#X obj 67 18 inlet;
#X obj 67 277 outlet;
#X connect 0 0 2 0;
#X connect 1 0 2 1;
#X connect 2 0 3 0;
#X connect 3 0 6 0;
#X connect 3 1 4 0;
#X connect 4 0 5 0;
#X connect 4 1 5 1;
#X connect 5 0 7 0;
#X connect 6 0 8 0;
#X connect 7 0 8 0;
#X connect 8 0 9 1;
#X connect 8 1 9 2;
#X connect 9 0 11 0;
#X connect 10 0 9 0;
