#N canvas 9 75 450 260 10;
#X obj 48 72 inlet;
#X obj 48 192 outlet;
#X obj 48 164 imageTouch \$1Off.png \$2;
#X obj 212 180 symbol \$1;
#X obj 212 159 loadbang;
#X obj 183 106 symbol \$1Off.png;
#X msg 212 201 reserve \$1Off.png \, reserve \$1On.png;
#X obj 115 73 inlet scale;
#X obj 232 44 inlet state;
#X obj 232 65 sel 0 1;
#X obj 291 106 symbol \$1On.png;
#X msg 183 133 set \$1;
#X connect 0 0 2 0;
#X connect 2 0 1 0;
#X connect 3 0 6 0;
#X connect 4 0 3 0;
#X connect 5 0 11 0;
#X connect 6 0 2 2;
#X connect 7 0 2 1;
#X connect 8 0 9 0;
#X connect 9 0 5 0;
#X connect 9 1 10 0;
#X connect 10 0 11 0;
#X connect 11 0 2 2;
