#N canvas 8 75 450 396 10;
#X obj 142 263 poftouch;
#X obj 142 182 pofimage \$1;
#X obj 142 77 inlet;
#X obj 142 157 pofscale 1 1 1;
#X obj 254 74 inlet scale;
#X obj 180 51 loadbang;
#X obj 180 75 f \$2;
#X obj 180 98 sel 0;
#X obj 193 131 f;
#X obj 205 205 route size;
#X obj 205 225 unpack f f;
#X obj 187 285 route up down;
#X msg 187 307 0;
#X msg 224 306 1;
#X obj 207 340 outlet;
#X obj 342 75 inlet image;
#X connect 0 1 11 0;
#X connect 1 0 0 0;
#X connect 1 1 9 0;
#X connect 2 0 3 0;
#X connect 3 0 1 0;
#X connect 4 0 8 0;
#X connect 5 0 6 0;
#X connect 6 0 7 0;
#X connect 7 1 8 0;
#X connect 8 0 3 1;
#X connect 8 0 3 2;
#X connect 9 0 10 0;
#X connect 10 0 0 1;
#X connect 10 1 0 2;
#X connect 11 0 12 0;
#X connect 11 1 13 0;
#X connect 12 0 14 0;
#X connect 13 0 14 0;
#X connect 15 0 1 0;
