#N canvas 1 73 450 300 10;
#X text 95 41 isInside W H;
#X obj 106 73 inlet from_touch;
#X obj 106 259 outlet;
#X obj 106 97 unpack f f;
#X obj 106 118 abs;
#X obj 163 118 abs;
#X obj 106 191 &&;
#X obj 106 212 sel 1 0;
#X obj 161 259 outlet cancel;
#X obj 106 167 < \$1;
#X obj 163 167 < \$2;
#X obj 106 141 * 2;
#X obj 163 143 * 2;
#X obj 229 71 inlet W;
#X obj 283 71 inlet H;
#X connect 1 0 3 0;
#X connect 3 0 4 0;
#X connect 3 1 5 0;
#X connect 4 0 11 0;
#X connect 5 0 12 0;
#X connect 6 0 7 0;
#X connect 7 0 2 0;
#X connect 7 1 8 0;
#X connect 9 0 6 0;
#X connect 10 0 6 1;
#X connect 11 0 9 0;
#X connect 12 0 10 0;
#X connect 13 0 9 1;
#X connect 14 0 10 1;
