#N canvas 5 80 450 300 10;
#X obj 141 174 outlet;
#X obj 141 150 pofvisible;
#X obj 158 98 r page;
#X obj 158 120 eqsym \$1;
#X obj 141 72 r pageHead;
#X connect 1 0 0 0;
#X connect 2 0 3 0;
#X connect 3 0 1 0;
#X connect 4 0 1 0;
