#N canvas 587 367 692 500 10;
#X floatatom 572 60 5 0 0 0 - - -, f 5;
#X floatatom 449 11 5 0 0 0 - - -, f 5;
#X floatatom 492 7 5 0 0 0 - - -, f 5;
#X floatatom 162 343 5 0 0 0 - - -, f 5;
#X floatatom 65 289 5 0 0 0 - - -, f 5;
#X floatatom 108 285 5 0 0 0 - - -, f 5;
#X obj 130 24 inlet;
#X floatatom 273 184 5 0 0 0 - - -, f 5;
#X floatatom 161 144 5 0 0 0 - - -, f 5;
#X floatatom 204 140 5 0 0 0 - - -, f 5;
#X floatatom 379 180 5 0 0 0 - - -, f 5;
#X floatatom 422 176 5 0 0 0 - - -, f 5;
#X obj 50 322 poftranslate -300;
#X floatatom 199 5 5 0 0 0 - - -, f 5;
#X floatatom 324 73 5 0 0 0 - - -, f 5;
#X floatatom 368 69 5 0 0 0 - - -, f 5;
#X obj 301 141 lock/icon;
#X obj 434 44 poftranslate 290;
#X obj 50 392 sel 1;
#X msg 50 413 balance;
#X obj 50 432 s page;
#X obj 146 255 sel 1;
#X obj 146 295 s page;
#X msg 146 276 concert;
#X obj 301 94 poftranslate 342 29;
#X obj 364 258 song/gui;
#X obj 434 94 pofimage ../img/ZicospitalBulle.png 0 100;
#X obj 562 176 bng 15 250 50 0 empty empty empty 17 7 0 10 -262144
-1 -1;
#X obj 527 202 mode/say 1 OuvertureAbout;
#X obj 434 115 poftouch 150 100;
#X msg 562 38 draw \$1;
#X obj 578 9 tgl 15 0 empty empty empty 17 7 0 10 -262144 -1 -1 0 1
;
#X obj 527 136 route down;
#X obj 50 368 imageTouch ../img/Balances.png 0.27;
#X obj 146 233 imageTouch ../img/Concert.png 0.27;
#X obj 364 234 pofscale 0.9 0.9 1;
#X obj 364 213 poftranslate 85;
#X obj 130 49 poftranslate 0 -210;
#X obj 331 36 t a a;
#X floatatom 451 302 5 0 0 0 - - -, f 5;
#X floatatom 339 280 5 0 0 0 - - -, f 5;
#X floatatom 382 276 5 0 0 0 - - -, f 5;
#X obj 324 359 imageTouch ../img/Help.png 0.27;
#X obj 146 177 poftranslate -190;
#X obj 324 313 poftranslate -80;
#X obj 324 405 mode/say 1 Help\$1;
#X obj 324 380 sel 1;
#X obj 50 344 fixScaleX;
#X obj 146 202 fixScaleX;
#X obj 324 336 fixScaleX;
#X obj 434 67 fixScaleX;
#X obj 301 118 fixScaleX;
#X obj 502 239 b;
#X obj 504 259 s iconTouched;
#X connect 0 0 26 1;
#X connect 1 0 17 1;
#X connect 2 0 17 2;
#X connect 3 0 33 1;
#X connect 4 0 12 1;
#X connect 5 0 12 2;
#X connect 6 0 37 0;
#X connect 7 0 34 1;
#X connect 8 0 43 1;
#X connect 9 0 43 2;
#X connect 10 0 36 1;
#X connect 11 0 36 2;
#X connect 12 0 47 0;
#X connect 13 0 37 2;
#X connect 14 0 24 1;
#X connect 15 0 24 2;
#X connect 17 0 50 0;
#X connect 18 0 19 0;
#X connect 19 0 20 0;
#X connect 21 0 23 0;
#X connect 23 0 22 0;
#X connect 24 0 51 0;
#X connect 26 0 29 0;
#X connect 27 0 28 0;
#X connect 29 1 32 0;
#X connect 30 0 29 0;
#X connect 31 0 30 0;
#X connect 32 0 28 0;
#X connect 32 0 52 0;
#X connect 33 0 18 0;
#X connect 34 0 21 0;
#X connect 35 0 25 0;
#X connect 36 0 35 0;
#X connect 37 0 12 0;
#X connect 37 0 36 0;
#X connect 37 0 38 0;
#X connect 37 0 43 0;
#X connect 37 0 44 0;
#X connect 38 0 24 0;
#X connect 38 1 17 0;
#X connect 39 0 42 1;
#X connect 40 0 44 1;
#X connect 41 0 44 2;
#X connect 42 0 46 0;
#X connect 43 0 48 0;
#X connect 44 0 49 0;
#X connect 46 0 45 0;
#X connect 47 0 33 0;
#X connect 48 0 34 0;
#X connect 49 0 42 0;
#X connect 50 0 26 0;
#X connect 51 0 16 0;
#X connect 52 0 53 0;
