#N canvas 15 75 450 300 10;
#X obj 149 17 inlet~;
#X obj 98 232 outlet~;
#X obj 180 232 outlet~;
#X obj 195 79 *~;
#X obj 210 36 pow 2;
#X obj 196 192 echo 25;
#X obj 217 133 echo 500 0.2;
#X obj 210 57 * 0.5;
#X obj 324 95 * 0.5;
#X obj 368 93 * -20;
#X obj 210 11 r fx-fx-9;
#X obj 345 46 r fx-param-9;
#X obj 368 116 + 30;
#X obj 130 171 *~ -1;
#X obj 282 95 * 300;
#X connect 0 0 1 0;
#X connect 0 0 2 0;
#X connect 0 0 3 0;
#X connect 3 0 5 0;
#X connect 3 0 6 0;
#X connect 4 0 7 0;
#X connect 5 0 2 0;
#X connect 6 0 5 0;
#X connect 6 0 13 0;
#X connect 7 0 3 1;
#X connect 8 0 6 2;
#X connect 9 0 12 0;
#X connect 10 0 4 0;
#X connect 11 0 8 0;
#X connect 11 0 9 0;
#X connect 11 0 14 0;
#X connect 12 0 5 1;
#X connect 13 0 1 0;
#X connect 14 0 6 1;
