#N canvas 285 175 479 285 10;
#X declare -stdpath cyclone -lib cyclone;
#X declare -stdpath zexy -lib zexy;
#X declare -lib pof;
#X declare -path abs;
#X declare -path ../;
#X declare -path ../;
#X declare -path ../;
#X declare -path ../;
#X declare -path ../;
#X declare -path ../;
#X obj 24 13 declare -stdpath cyclone -lib cyclone;
#X obj 24 33 declare -stdpath zexy -lib zexy;
#X obj 24 53 declare -lib pof;
#X obj 26 91 pof_main;
#X obj 27 122 loadbang;
#X msg 27 147 \; pd-pof_main.pd vis 1;
#X obj 174 173 pofwin;
#N canvas 751 378 307 150 bang_on_first_frame 0;
#X obj 54 49 pofbang 1;
#X obj 54 26 pofhead;
#X msg 105 76 0;
#X obj 143 76 outlet;
#X connect 0 1 2 0;
#X connect 0 1 3 0;
#X connect 1 0 0 0;
#X connect 2 0 0 0;
#X restore 174 93 pd bang_on_first_frame;
#X msg 174 115 window 800 600 0 \, framerate 25 \, background 0 0 0
;
#X connect 4 0 5 0;
#X connect 7 0 8 0;
#X connect 8 0 6 0;
