#N canvas 1367 140 526 631 10;
#X declare -path abs;
#X declare -path ../;
#X declare -path ../;
#X declare -path ../;
#X declare -path ../;
#X declare -path ../;
#X declare -path ../;
#X obj 18 178 pofwin;
#X msg 30 145 build;
#N canvas 751 378 307 150 bang_on_first_frame 0;
#X obj 54 49 pofbang 1;
#X obj 54 26 pofhead;
#X msg 105 76 0;
#X obj 143 76 outlet;
#X connect 0 1 2 0;
#X connect 0 1 3 0;
#X connect 1 0 0 0;
#X connect 2 0 0 0;
#X restore 18 98 pd bang_on_first_frame;
#X obj 14 30 declare -path abs;
#N canvas 586 214 689 531 mainHead 0;
#X obj 100 16 pofhead;
#X obj 156 20 pofwin;
#X obj 156 44 route window;
#X obj 156 66 unpack f f;
#X obj 159 116 min;
#X floatatom 193 167 5 0 0 0 - - -, f 5;
#X obj 100 152 pofscale 1 1;
#X text 185 115 auto-scale to screen;
#X obj 127 249 s mainHead;
#X floatatom 139 402 5 0 0 0 - - -, f 5;
#X floatatom 179 399 5 0 0 0 - - -, f 5;
#X obj 100 190 t a a;
#X obj 379 113 loadbang;
#X obj 305 172 pofbang;
#X msg 379 133 1;
#X msg 379 154 0;
#X msg 280 277 0;
#X msg 245 245 1;
#X obj 100 287 pofvisible 1;
#X obj 368 176 bng 15 250 50 0 empty empty empty 17 7 0 10 -262144
-1 -1;
#X obj 305 150 pofhead;
#X obj 321 81 inlet;
#X msg 337 404 draw 1;
#X obj 337 383 loadbang;
#X obj 324 356 pofcolor 0 0 0 1;
#X obj 324 435 poftouch 5000 5000;
#X obj 119 373 pofimage LogoZicos-pital.png 700;
#X obj 156 91 / 800;
#X obj 213 90 / 600;
#X obj 100 477 credit;
#X obj 100 422 poftranslate 300 270;
#X obj 280 244 del 3000;
#X obj 263 20 s ScreenScaleW;
#X obj 278 42 s ScreenScaleH;
#X obj 100 315 t a a a;
#X obj 119 344 fixScale;
#X obj 100 450 fixScale;
#X obj 127 216 pofvisible;
#X obj 344 205 del 100;
#X msg 153 186 1;
#X obj 411 306 s page;
#X msg 411 269 concert;
#X msg 344 240 balance;
#X obj 411 245 del 100;
#X connect 0 0 6 0;
#X connect 1 0 2 0;
#X connect 2 0 3 0;
#X connect 3 0 27 0;
#X connect 3 1 28 0;
#X connect 4 0 5 0;
#X connect 6 0 11 0;
#X connect 9 0 30 1;
#X connect 10 0 30 2;
#X connect 11 0 18 0;
#X connect 11 1 37 0;
#X connect 12 0 14 0;
#X connect 13 1 15 0;
#X connect 13 1 19 0;
#X connect 13 1 31 0;
#X connect 13 1 38 0;
#X connect 14 0 13 0;
#X connect 15 0 13 0;
#X connect 16 0 18 0;
#X connect 17 0 18 0;
#X connect 18 0 34 0;
#X connect 20 0 13 0;
#X connect 21 0 17 0;
#X connect 21 0 14 0;
#X connect 22 0 25 0;
#X connect 23 0 22 0;
#X connect 24 0 25 0;
#X connect 27 0 4 0;
#X connect 27 0 6 1;
#X connect 27 0 32 0;
#X connect 28 0 4 1;
#X connect 28 0 6 2;
#X connect 28 0 33 0;
#X connect 30 0 36 0;
#X connect 31 0 16 0;
#X connect 34 0 30 0;
#X connect 34 1 35 0;
#X connect 34 2 24 0;
#X connect 35 0 26 0;
#X connect 36 0 29 0;
#X connect 37 0 8 0;
#X connect 38 0 39 0;
#X connect 38 0 42 0;
#X connect 38 0 43 0;
#X connect 39 0 37 0;
#X connect 41 0 40 0;
#X connect 42 0 40 0;
#X connect 43 0 41 0;
#X restore 23 234 pd mainHead;
#X obj 23 213 bng 15 250 50 0 empty empty empty 17 7 0 10 -262144 -1
-1;
#X obj 137 180 r mainHead;
#X obj 18 295 mode/manager;
#N canvas 913 309 450 300 strings&paths 0;
#X obj 162 206 pofutil;
#X msg 162 180 setstring data .;
#X obj 223 208 s datadir;
#X obj 201 25 inlet;
#X obj 135 26 loadbang;
#X obj 162 63 b;
#X obj 162 127 pofutil;
#X msg 162 103 getdir;
#X msg 162 151 symbol \$1/data;
#X obj 212 60 bng 15 250 50 0 empty empty empty 17 7 0 10 -262144 -1
-1;
#X connect 1 0 0 0;
#X connect 3 0 5 0;
#X connect 4 0 5 0;
#X connect 5 0 7 0;
#X connect 6 0 8 0;
#X connect 7 0 6 0;
#X connect 8 0 1 0;
#X connect 8 0 2 0;
#X connect 9 0 5 0;
#X restore 250 240 pd strings&paths;
#X obj 249 221 bng 15 250 50 0 empty empty empty 17 7 0 10 -262144
-1 -1;
#N canvas 5 103 344 272 fonts 0;
#X obj 42 87 poffonts typo font/Typoster_demo.otf;
#X obj 42 43 poffonts vera font/vera.ttf;
#X obj 42 65 poffonts impact font/Impact.ttf;
#X restore 255 160 pd fonts;
#X obj 138 223 t a a a;
#X obj 17 317 parole/manager;
#X obj 17 390 rec/rec;
#X msg 80 153 framerate 60;
#X msg 18 120 window 800 600 0 \, framerate 60 \, background 0 0 0
;
#X obj 345 432 mode/edit;
#X obj 161 56 loadbang;
#X obj 161 78 del 10000;
#X msg 161 98 build \, bang;
#X obj 237 387 pageHead balance;
#X obj 382 137 loadbang;
#X obj 237 410 balance/GUI;
#X obj 128 413 concert/GUI;
#X obj 184 308 s overHead;
#X msg 382 191 \; page concert;
#X obj 17 340 set/manager;
#X obj 177 246 s pageHead;
#X obj 18 419 song/player;
#N canvas 8 82 570 416 audioMaster 0;
#X obj 211 163 catch~ Out-1;
#X obj 80 278 *~;
#X obj 96 255 z~ 64;
#X obj 79 223 limiter~;
#X obj 100 162 catch~ Out-0;
#X obj 79 192 *~ 1;
#X obj 192 277 *~;
#X obj 208 254 z~ 64;
#X obj 191 222 limiter~;
#X obj 191 191 *~ 1;
#X obj 124 335 dac~;
#X obj 77 109 catch~ OutMusic-0;
#X obj 191 110 catch~ OutMusic-1;
#X obj 78 133 *~;
#X obj 190 132 *~;
#X obj 325 147 line~;
#X obj 325 52 r master-music-mute;
#X obj 334 254 s master-music-mute;
#X msg 334 231 0;
#X obj 334 208 loadbang;
#X obj 325 72 == 0;
#X msg 325 124 \$1 100;
#X msg 364 229 1;
#X obj 325 170 *~;
#X obj 325 99 max 0.3;
#X obj 335 304 catch~ OutMusic-rev;
#X obj 335 360 OutMusic~;
#X obj 335 332 rev2~ 90 90 3000 50;
#X connect 0 0 9 0;
#X connect 1 0 10 0;
#X connect 2 0 1 1;
#X connect 3 0 1 0;
#X connect 4 0 5 0;
#X connect 5 0 3 0;
#X connect 5 0 2 0;
#X connect 6 0 10 1;
#X connect 7 0 6 1;
#X connect 8 0 6 0;
#X connect 9 0 8 0;
#X connect 9 0 7 0;
#X connect 11 0 13 0;
#X connect 12 0 14 0;
#X connect 13 0 5 0;
#X connect 14 0 9 0;
#X connect 15 0 23 0;
#X connect 15 0 23 1;
#X connect 16 0 20 0;
#X connect 18 0 17 0;
#X connect 19 0 18 0;
#X connect 20 0 24 0;
#X connect 21 0 15 0;
#X connect 22 0 17 0;
#X connect 23 0 14 1;
#X connect 23 0 13 1;
#X connect 24 0 21 0;
#X connect 25 0 27 0;
#X connect 27 0 26 0;
#X connect 27 1 26 1;
#X restore 327 299 pd audioMaster;
#X obj 16 363 song/manager;
#X obj 157 328 song/listGui;
#X obj 343 51 loadbang;
#X msg 343 73 \; pd dsp 1;
#N canvas 791 637 450 300 INIT 0;
#X obj 190 118 s mode;
#X obj 163 15 loadbang;
#X obj 163 65 t b b;
#X obj 163 179 mode/say 1 Allumage;
#X obj 293 118 s set;
#X msg 293 91 symbol Antoine;
#X msg 190 91 symbol Antoine;
#X obj 163 149 del 1;
#X obj 141 42 bng 15 250 50 0 empty empty empty 17 7 0 10 -262144 -1
-1;
#X obj 163 35 del 5000;
#X obj 333 118 s set-load;
#X obj 291 68 del 2000;
#X connect 1 0 9 0;
#X connect 1 0 11 0;
#X connect 2 0 7 0;
#X connect 2 1 6 0;
#X connect 5 0 4 0;
#X connect 5 0 10 0;
#X connect 6 0 0 0;
#X connect 7 0 3 0;
#X connect 8 0 2 0;
#X connect 9 0 2 0;
#X connect 11 0 5 0;
#X restore 328 328 pd INIT;
#X obj 157 266 fixScaleX;
#X obj 157 287 t a a;
#X obj 345 408 fixScaleX;
#X obj 81 185 tgl 15 0 empty empty empty 17 7 0 10 -262144 -1 -1 0
1;
#X floatatom 88 570 5 0 0 0 - - -, f 5;
#X msg 155 519 0;
#X obj 144 488 t b;
#X msg 94 538 1;
#X obj 94 516 del 5000;
#X obj 148 463 r iconTouched;
#X obj 137 203 pofvisible 1;
#X obj 163 572 pofwin;
#X obj 181 544 f;
#X obj 205 580 pofwin;
#X obj 223 177 tgl 15 0 empty empty empty 17 7 0 10 -262144 -1 -1 0
1;
#X obj 129 458 bng 15 250 50 0 empty empty empty 17 7 0 10 -262144
-1 -1;
#X obj 128 390 pageHead concert;
#X obj 345 387 pageHead modeEdit;
#X msg 280 529 none;
#X obj 278 564 s page;
#X msg 325 517 concert;
#X obj 417 97 switch~;
#X obj 417 77 tgl 15 0 empty empty empty 17 7 0 10 -262144 -1 -1 0
1;
#X obj 417 55 loadbang;
#X connect 1 0 0 0;
#X connect 2 0 15 0;
#X connect 5 0 4 0;
#X connect 6 0 45 0;
#X connect 9 0 8 0;
#X connect 11 1 35 0;
#X connect 11 2 27 0;
#X connect 14 0 0 0;
#X connect 17 0 18 0;
#X connect 18 0 19 0;
#X connect 19 0 0 0;
#X connect 20 0 22 0;
#X connect 21 0 25 0;
#X connect 32 0 33 0;
#X connect 35 0 36 0;
#X connect 36 0 31 0;
#X connect 36 1 24 0;
#X connect 37 0 16 0;
#X connect 38 0 0 0;
#X connect 40 0 47 0;
#X connect 40 0 53 0;
#X connect 41 0 40 0;
#X connect 41 0 43 0;
#X connect 42 0 47 0;
#X connect 42 0 55 0;
#X connect 43 0 42 0;
#X connect 45 0 11 0;
#X connect 47 0 39 0;
#X connect 49 0 45 0;
#X connect 50 0 41 0;
#X connect 51 0 23 0;
#X connect 52 0 37 0;
#X connect 53 0 54 0;
#X connect 55 0 54 0;
#X connect 57 0 56 0;
#X connect 58 0 57 0;
