#N canvas 225 173 450 345 10;
#X obj 75 9 inlet head;
#X floatatom 141 30 5 0 0 0 - - -, f 5;
#X floatatom 189 27 5 0 0 0 - - -, f 5;
#X obj 75 99 instrItem 0 \$1;
#X obj 75 120 instrItem 1 \$1;
#X obj 75 140 instrItem 2 \$1;
#X obj 75 161 instrItem 3 \$1;
#X obj 75 181 instrItem 4 \$1;
#X obj 75 201 instrItem 5 \$1;
#X obj 75 222 instrItem 6 \$1;
#X obj 75 242 instrItem 7 \$1;
#X obj 75 263 instrItem 8 \$1;
#X obj 75 283 instrItem 9 \$1;
#X obj 75 68 poftranslate -324 242;
#X connect 0 0 13 0;
#X connect 1 0 13 1;
#X connect 2 0 13 2;
#X connect 3 0 4 0;
#X connect 4 0 5 0;
#X connect 5 0 6 0;
#X connect 6 0 7 0;
#X connect 7 0 8 0;
#X connect 8 0 9 0;
#X connect 9 0 10 0;
#X connect 10 0 11 0;
#X connect 11 0 12 0;
#X connect 13 0 3 0;
