#N canvas 816 290 620 541 10;
#X msg 203 435 text Hello;
#X msg 204 457 text dcjdkjdsvbkjdvbkdjsvbksdv;
#X obj 58 89 t a a;
#X obj 85 114 pofcolor 0 0 0 0.9;
#X obj 328 120 list prepend text;
#X obj 328 141 list trim;
#X msg 32 466 text Hello;
#X obj 389 151 list prepend text;
#X obj 389 172 list trim;
#X floatatom 90 390 5 0 0 0 - - -, f 5;
#X obj 58 328 poftexts typo 21 -1;
#X obj 58 298 poftranslate -140 -7;
#X obj 18 442 poftranslate -130 12;
#X obj 83 230 r \$1-width;
#X obj 83 252 * -0.5;
#X obj 97 277 + 20;
#X obj 57 418 + 60;
#X obj 204 116 r \$1-spacing;
#X obj 246 211 r \$1-spacing;
#X obj 136 272 * -0.166;
#X msg 197 294 size \$1;
#X obj 197 272 * 0.5;
#X msg 280 359 size \$1;
#X obj 280 337 * 0.3;
#X obj 232 336 * 0.25;
#X obj 99 134 r \$1-width;
#X obj 58 13 inlet head;
#X obj 265 12 inlet props;
#X obj 204 139 - 10;
#X obj 265 34 route _show;
#X obj 351 14 namecanvas \$0-canvas;
#X obj 265 77 s \$0-canvas;
#X msg 265 56 vis 0 \, vis 1;
#X msg 19 155 draw \$1;
#X obj 21 136 tgl 15 0 empty empty empty 17 7 0 10 -262144 -1 -1 0
1;
#X obj 85 190 poftouch 300 40 1;
#X obj 399 258 r \$1-touchCancel;
#X obj 359 310 route up down;
#X msg 396 332 1;
#X obj 359 332 b;
#X obj 359 358 f;
#X msg 399 282 0;
#X obj 359 400 symbol;
#X obj 359 380 sel 1;
#X obj 328 98 route name date selected;
#X obj 115 90 unpack f f f;
#X msg 115 64 0 0 0;
#X obj 18 368 pofcolor 0.5 1 1 1;
#X obj 58 210 pofcolor 1 1 1 1;
#X msg 162 62 0.4 0.4 0;
#X obj 143 38 sel 0 1;
#X obj 396 378 symbol;
#X obj 18 491 poftexts vera 19 -1;
#X obj 134 147 - 10;
#X obj 85 169 pofrect 300 40 20;
#X obj 359 422 s set;
#X obj 403 421 s set-load;
#X obj 474 422 s set-play-name;
#X connect 0 0 10 0;
#X connect 1 0 10 0;
#X connect 2 0 47 0;
#X connect 2 0 48 0;
#X connect 2 1 3 0;
#X connect 3 0 54 0;
#X connect 4 0 5 0;
#X connect 5 0 10 0;
#X connect 6 0 52 0;
#X connect 7 0 8 0;
#X connect 8 0 52 0;
#X connect 9 0 12 2;
#X connect 11 0 10 0;
#X connect 12 0 52 0;
#X connect 13 0 14 0;
#X connect 14 0 15 0;
#X connect 14 0 16 0;
#X connect 15 0 11 1;
#X connect 16 0 12 1;
#X connect 17 0 28 0;
#X connect 18 0 19 0;
#X connect 18 0 21 0;
#X connect 18 0 23 0;
#X connect 18 0 24 0;
#X connect 19 0 11 2;
#X connect 20 0 10 0;
#X connect 21 0 20 0;
#X connect 22 0 52 0;
#X connect 23 0 22 0;
#X connect 24 0 12 2;
#X connect 25 0 53 0;
#X connect 25 0 35 1;
#X connect 26 0 2 0;
#X connect 27 0 29 0;
#X connect 28 0 35 2;
#X connect 28 0 54 2;
#X connect 29 0 32 0;
#X connect 29 1 44 0;
#X connect 32 0 31 0;
#X connect 33 0 35 0;
#X connect 34 0 33 0;
#X connect 35 1 37 0;
#X connect 36 0 41 0;
#X connect 37 0 39 0;
#X connect 37 1 38 0;
#X connect 38 0 40 1;
#X connect 39 0 40 0;
#X connect 40 0 43 0;
#X connect 41 0 40 1;
#X connect 42 0 55 0;
#X connect 42 0 56 0;
#X connect 42 0 57 0;
#X connect 43 0 42 0;
#X connect 44 0 4 0;
#X connect 44 1 7 0;
#X connect 44 1 51 0;
#X connect 44 2 50 0;
#X connect 45 0 3 1;
#X connect 45 1 3 2;
#X connect 45 2 3 3;
#X connect 46 0 45 0;
#X connect 47 0 12 0;
#X connect 48 0 11 0;
#X connect 49 0 45 0;
#X connect 50 0 46 0;
#X connect 50 1 49 0;
#X connect 51 0 42 1;
#X connect 53 0 54 1;
#X connect 54 0 35 0;
