#N canvas 167 316 726 441 10;
#X obj 174 26 inlet~;
#X obj 88 401 outlet~;
#X obj 233 402 outlet~;
#X obj 512 36 r fx-param-0;
#X floatatom 410 148 5 0 200 0 - - -, f 5;
#X obj 263 235 bob~;
#X obj 410 170 / 25;
#X obj 273 174 pack 0 50;
#X obj 273 199 line~;
#X floatatom 272 152 7 0 0 0 - - -, f 7;
#X text 458 166 scaled to 0-8;
#X text 457 148 0-200 control;
#X obj 410 97 loadbang;
#X msg 410 122 10;
#X obj 409 198 line~;
#X obj 272 58 loadbang;
#X obj 264 323 atan~;
#X floatatom 332 269 5 0 0 0 - - -, f 5;
#X obj 474 194 r fx-fx-0;
#X obj 473 238 * 500;
#X obj 473 216 pow 3;
#X obj 510 58 * 95;
#X obj 439 365 atan~;
#X obj 438 399 *~ 0.5;
#X floatatom 588 394 5 0 0 0 - - -, f 5;
#X obj 438 342 *~;
#X obj 518 369 line~;
#X obj 565 119 r song-midi-drum-0;
#X obj 565 139 route 0;
#X obj 517 327 f;
#X obj 687 207 b;
#X obj 659 333 bng 15 250 50 0 empty empty empty 17 7 0 10 -262144
-1 -1;
#X obj 604 163 unpack f f;
#X obj 661 183 sel 0;
#X floatatom 564 255 5 0 0 0 - - -, f 5;
#X obj 415 282 bp~ 3000 2;
#X obj 496 282 bp~ 7000 2;
#X msg 518 348 \$1 \, 0 7;
#X obj 525 241 * 2000;
#X obj 511 217 pow 2;
#X obj 338 338 line~;
#X obj 337 296 f;
#X obj 264 297 *~;
#X msg 338 317 \$1 \, 0 300;
#X obj 264 350 *~ 0.2;
#X msg 272 83 72;
#X obj 163 238 r~ DENORM;
#X connect 0 0 2 0;
#X connect 0 0 5 0;
#X connect 0 0 1 0;
#X connect 0 0 35 0;
#X connect 0 0 36 0;
#X connect 3 0 21 0;
#X connect 4 0 6 0;
#X connect 5 0 42 0;
#X connect 6 0 14 0;
#X connect 7 0 8 0;
#X connect 8 0 5 1;
#X connect 9 0 7 0;
#X connect 12 0 13 0;
#X connect 13 0 4 0;
#X connect 14 0 5 2;
#X connect 15 0 45 0;
#X connect 16 0 44 0;
#X connect 17 0 42 1;
#X connect 18 0 20 0;
#X connect 18 0 39 0;
#X connect 19 0 41 1;
#X connect 19 0 42 1;
#X connect 20 0 19 0;
#X connect 21 0 6 0;
#X connect 22 0 23 0;
#X connect 22 0 44 0;
#X connect 24 0 29 1;
#X connect 25 0 22 0;
#X connect 26 0 25 1;
#X connect 27 0 28 0;
#X connect 28 1 32 0;
#X connect 29 0 37 0;
#X connect 30 0 29 0;
#X connect 30 0 31 0;
#X connect 30 0 41 0;
#X connect 32 1 33 0;
#X connect 33 1 30 0;
#X connect 34 0 36 2;
#X connect 35 0 25 0;
#X connect 36 0 25 0;
#X connect 37 0 26 0;
#X connect 38 0 29 1;
#X connect 39 0 38 0;
#X connect 40 0 42 1;
#X connect 41 0 43 0;
#X connect 42 0 16 0;
#X connect 43 0 40 0;
#X connect 44 0 2 0;
#X connect 44 0 1 0;
#X connect 45 0 9 0;
#X connect 46 0 16 0;
#X connect 46 0 22 0;
