#N canvas 4 82 450 300 10;
#X obj 174 26 inlet~;
#X obj 98 232 outlet~;
#X obj 243 236 outlet~;
#X obj 237 79 *~;
#X obj 252 36 pow 2;
#X obj 252 11 r fx-fx-3;
#X obj 324 95 * 0.2;
#X obj 344 47 r fx-param-3;
#X obj 252 57 * 0.5;
#X obj 217 103 bp~ 800 1;
#X obj 283 96 * 100;
#X obj 368 93 * 20;
#X obj 368 116 + 10;
#X obj 275 163 song/echo 25;
#X obj 231 128 song/echo 500 0.2;
#X connect 0 0 1 0;
#X connect 0 0 2 0;
#X connect 0 0 3 0;
#X connect 3 0 9 0;
#X connect 3 0 13 0;
#X connect 4 0 8 0;
#X connect 5 0 4 0;
#X connect 6 0 14 2;
#X connect 7 0 6 0;
#X connect 7 0 10 0;
#X connect 7 0 11 0;
#X connect 8 0 3 1;
#X connect 9 0 14 0;
#X connect 10 0 14 1;
#X connect 11 0 12 0;
#X connect 12 0 13 1;
#X connect 13 0 2 0;
#X connect 14 0 1 0;
#X connect 14 0 13 0;
