#N canvas 9 82 450 300 10;
#X obj 174 26 inlet~;
#X obj 100 269 outlet~;
#X obj 210 270 outlet~;
#X obj 212 125 *~;
#X obj 227 33 pow 2;
#X obj 324 144 * 0.2;
#X obj 227 54 * 0.5;
#X obj 368 142 * 20;
#X obj 368 165 + 10;
#X obj 283 145 * 200;
#X obj 227 8 r fx-fx-6;
#X obj 345 46 r fx-param-6;
#X obj 217 152 bp~ 1200 1;
#X msg 226 74 \$1 5;
#X obj 226 95 line~;
#X obj 217 182 song/echo 500 0.2;
#X obj 146 229 song/echo 25;
#X connect 0 0 1 0;
#X connect 0 0 2 0;
#X connect 0 0 3 0;
#X connect 3 0 12 0;
#X connect 3 0 16 0;
#X connect 4 0 6 0;
#X connect 5 0 15 2;
#X connect 6 0 13 0;
#X connect 7 0 8 0;
#X connect 8 0 16 1;
#X connect 9 0 15 1;
#X connect 10 0 4 0;
#X connect 11 0 5 0;
#X connect 11 0 7 0;
#X connect 11 0 9 0;
#X connect 12 0 15 0;
#X connect 13 0 14 0;
#X connect 14 0 3 1;
#X connect 15 0 2 0;
#X connect 15 0 16 0;
#X connect 16 0 1 0;
