#N canvas 12 82 450 300 10;
#X obj 174 26 inlet~;
#X obj 101 255 outlet~;
#X obj 209 259 outlet~;
#X obj 212 120 *~;
#X obj 227 33 pow 2;
#X obj 227 54 * 0.5;
#X obj 282 139 * 200;
#X obj 324 139 * 0.5;
#X obj 368 137 * -20;
#X obj 368 160 + 40;
#X obj 217 147 bp~ 1000 1;
#X obj 227 8 r fx-fx-7;
#X obj 345 46 r fx-param-7;
#X msg 227 74 \$1 5;
#X obj 227 95 line~;
#X obj 217 177 song/echo 500 0.2;
#X obj 147 215 song/echo 25;
#X connect 0 0 1 0;
#X connect 0 0 2 0;
#X connect 0 0 3 0;
#X connect 3 0 10 0;
#X connect 3 0 16 0;
#X connect 4 0 5 0;
#X connect 5 0 13 0;
#X connect 6 0 15 1;
#X connect 7 0 15 2;
#X connect 8 0 9 0;
#X connect 9 0 16 1;
#X connect 10 0 15 0;
#X connect 11 0 4 0;
#X connect 12 0 6 0;
#X connect 12 0 7 0;
#X connect 12 0 8 0;
#X connect 13 0 14 0;
#X connect 14 0 3 1;
#X connect 15 0 2 0;
#X connect 15 0 16 0;
#X connect 16 0 1 0;
