#N canvas 13 82 450 300 10;
#X obj 149 17 inlet~;
#X obj 98 232 outlet~;
#X obj 180 232 outlet~;
#X obj 195 118 *~;
#X obj 210 36 pow 2;
#X obj 210 57 * 0.5;
#X obj 324 118 * 0.5;
#X obj 368 116 * -20;
#X obj 368 139 + 40;
#X obj 210 11 r fx-fx-8;
#X obj 345 46 r fx-param-8;
#X obj 282 118 * 100;
#X msg 210 77 \$1 5;
#X obj 210 98 line~;
#X obj 217 156 song/echo 500 0.2;
#X obj 196 192 song/echo 25;
#X connect 0 0 1 0;
#X connect 0 0 2 0;
#X connect 0 0 3 0;
#X connect 3 0 14 0;
#X connect 3 0 15 0;
#X connect 4 0 5 0;
#X connect 5 0 12 0;
#X connect 6 0 14 2;
#X connect 7 0 8 0;
#X connect 8 0 15 1;
#X connect 9 0 4 0;
#X connect 10 0 6 0;
#X connect 10 0 7 0;
#X connect 10 0 11 0;
#X connect 11 0 14 1;
#X connect 12 0 13 0;
#X connect 13 0 3 1;
#X connect 14 0 1 0;
#X connect 14 0 15 0;
#X connect 15 0 2 0;
