#N canvas 14 82 450 300 10;
#X obj 149 17 inlet~;
#X obj 98 250 outlet~;
#X obj 180 250 outlet~;
#X obj 195 138 *~;
#X obj 210 36 pow 2;
#X obj 210 57 * 0.5;
#X obj 324 134 * 0.5;
#X obj 368 132 * -20;
#X obj 210 11 r fx-fx-9;
#X obj 345 46 r fx-param-9;
#X obj 368 155 + 30;
#X obj 130 199 *~ -1;
#X obj 282 134 * 300;
#X msg 210 79 \$1 5;
#X obj 210 100 line~;
#X obj 217 172 song/echo 500 0.2;
#X obj 196 220 song/echo 25;
#X connect 0 0 1 0;
#X connect 0 0 2 0;
#X connect 0 0 3 0;
#X connect 3 0 15 0;
#X connect 3 0 16 0;
#X connect 4 0 5 0;
#X connect 5 0 13 0;
#X connect 6 0 15 2;
#X connect 7 0 10 0;
#X connect 8 0 4 0;
#X connect 9 0 6 0;
#X connect 9 0 7 0;
#X connect 9 0 12 0;
#X connect 10 0 16 1;
#X connect 11 0 1 0;
#X connect 12 0 15 1;
#X connect 13 0 14 0;
#X connect 14 0 3 1;
#X connect 15 0 11 0;
#X connect 15 0 16 0;
#X connect 16 0 2 0;
