#N canvas 845 75 537 504 10;
#X declare -path ../;
#X obj 48 33 inlet head;
#X obj 352 44 hsl 128 15 0 20 0 0 list-modes-pos list-modes-pos list-pos
-2 -8 0 10 -262144 -1 -1 15 1;
#X obj 363 406 bng 15 250 50 0 empty empty empty 17 7 0 10 -262144
-1 -1;
#N canvas 564 456 602 379 getprop 0;
#X obj 232 132 pofxml modes;
#X obj 156 56 unpack f f;
#X msg 232 107 getnum /;
#X floatatom 311 172 5 0 0 0 - - -, f 5;
#X obj 213 81 t f b f;
#X obj 240 262 list prepend;
#X obj 213 171 t f f;
#X obj 240 191 <;
#X msg 240 236 visible \$1;
#X obj 83 234 pofxml modes;
#X obj 46 174 hradio 15 1 0 8 empty empty empty 0 -8 0 10 -262144 -1
-1 1;
#X msg 30 220 print;
#X msg 83 206 get /mode[\$1][@file];
#X obj 59 97 pofxml modes;
#X msg 104 263 date \$1;
#X msg 3 142 name \$1;
#X obj 156 14 r list-modes-getprop;
#X obj 240 285 s list-modes-props;
#X obj 240 214 || 0;
#X obj 156 35 t a a;
#X obj 309 60 unpack f f;
#X msg 83 287 symbol \$1;
#X obj 143 310 r mode;
#X msg 83 344 selected 1;
#X msg 156 343 selected 0;
#X obj 83 310 sel mode;
#X obj 59 142 list prepend name;
#X obj 13 102 print;
#X obj 390 221 pofxml modes;
#X obj 344 226 print;
#X obj 381 150 hradio 15 1 0 8 empty empty empty 0 -8 0 10 -262144
-1 -1 5;
#X msg 390 200 gets /mode[\$1][@name];
#X msg 59 76 get /mode[\$1][@name];
#X obj 59 119 route get;
#X connect 0 0 7 1;
#X connect 0 0 3 0;
#X connect 1 1 4 0;
#X connect 2 0 0 0;
#X connect 4 0 6 0;
#X connect 4 1 2 0;
#X connect 5 0 17 0;
#X connect 6 0 12 0;
#X connect 6 0 32 0;
#X connect 6 1 7 0;
#X connect 7 0 18 0;
#X connect 8 0 5 0;
#X connect 9 0 14 0;
#X connect 9 0 21 0;
#X connect 11 0 9 0;
#X connect 12 0 9 0;
#X connect 13 0 33 0;
#X connect 14 0 5 0;
#X connect 15 0 5 0;
#X connect 16 0 19 0;
#X connect 18 0 8 0;
#X connect 19 0 1 0;
#X connect 19 1 20 0;
#X connect 20 0 5 1;
#X connect 21 0 25 0;
#X connect 22 0 25 1;
#X connect 23 0 5 0;
#X connect 24 0 5 0;
#X connect 25 0 23 0;
#X connect 25 1 24 0;
#X connect 26 0 5 0;
#X connect 28 0 29 0;
#X connect 30 0 31 0;
#X connect 31 0 28 0;
#X connect 32 0 13 0;
#X connect 33 0 26 0;
#X restore 236 210 pd getprop;
#X obj 48 145 scrollList/gui modes 1240 1200 168 mode/listItem;
#X obj 405 339 r modesNumber;
#X obj 417 389 s list-modes-number;
#X obj 390 367 t b f;
#X obj 390 409 s list-modes-update;
#X msg 256 39 0 _show;
#X obj 256 63 s list-modes-props;
#X obj 340 326 r mode;
#X obj 340 346 b;
#X obj 340 367 del 0;
#X obj 48 57 t a a;
#X floatatom 417 78 5 0 0 0 - - -, f 5;
#X obj 343 200 pofcolor 1 1 1 1;
#X obj 343 222 poftexts typo 43;
#X msg 393 277 text Modes;
#X obj 393 253 loadbang;
#X obj 370 133 pofcolor 0.3 0.2 0.1 1;
#X floatatom 465 85 5 0 0 0 - - -, f 5;
#X floatatom 476 189 5 0 0 0 - - -, f 5;
#X floatatom 331 116 5 0 0 0 - - -, f 5;
#X obj 343 178 poftranslate -60 -168;
#X obj 48 108 pofscale 0.25 0.25 1;
#X obj 21 85 t a a;
#X obj 21 168 t a a;
#X obj 9 343 pofcolor 1 1 1 1;
#X obj 9 365 poftexts typo 43;
#X msg 120 366 text Modes;
#X obj 120 342 loadbang;
#X obj 48 191 pofcolor 0.3 0.2 0.1 1;
#X floatatom 223 251 5 0 0 0 - - -, f 5;
#X floatatom 198 192 5 0 0 0 - - -, f 5;
#X obj 370 104 poftranslate 0 -16;
#X obj 370 156 pofrect 320 345 10 10 0 0;
#X obj 48 261 poftranslate 0 -177;
#X obj 48 284 pofrect 320 50 10 10 0 0;
#X obj 67 240 pofrect 320 70 0 0 10 10;
#X floatatom 211 313 5 0 0 0 - - -, f 5;
#X obj 9 320 poftranslate -60 -175;
#X obj 67 215 poftranslate 0 187;
#X obj 390 317 r modesChanged;
#N canvas 265 247 1080 560 ADMIN 1;
#X obj 295 79 r ADMIN;
#X obj 383 221 t a a;
#X obj 496 251 pofcolor 1 1 1 0.5;
#X obj 383 250 pofcolor 0 0 0 1;
#X obj 115 150 loadbang;
#X floatatom 457 176 5 0 0 0 - - -, f 5;
#X floatatom 516 226 5 0 0 0 - - -, f 5;
#X floatatom 559 222 5 0 0 0 - - -, f 5;
#X msg 337 216 text +;
#X msg 470 223 draw 1;
#X obj 497 273 poftouch 35 32;
#X obj 28 233 t a a;
#X obj 141 263 pofcolor 1 1 1 0.5;
#X obj 28 262 pofcolor 0 0 0 1;
#X floatatom 161 238 5 0 0 0 - - -, f 5;
#X floatatom 204 234 5 0 0 0 - - -, f 5;
#X msg 115 235 draw 1;
#X msg 124 185 text edit;
#X floatatom 61 177 5 0 0 0 - - -, f 5;
#X obj 142 285 poftouch 50 32;
#X obj 28 284 poftexts typo 23;
#X obj 383 272 poftexts typo 27;
#X msg 198 334 0;
#X msg 229 334 1;
#X obj 202 361 tgl 15 0 empty empty empty 17 7 0 10 -262144 -1 -1 0
1;
#X obj 202 381 max 0.5;
#X obj 293 332 isInside 50 32;
#X obj 223 308 route up down move;
#X obj 282 369 isInside 50 32;
#X msg 553 321 0;
#X msg 584 321 1;
#X obj 557 348 tgl 15 0 empty empty empty 17 7 0 10 -262144 -1 -1 0
1;
#X obj 557 368 max 0.5;
#X obj 648 319 isInside 50 32;
#X obj 578 295 route up down move;
#X obj 377 420 s modeEdit;
#X obj 637 377 b;
#X obj 637 422 poftextbox;
#X obj 637 464 s modeCreate;
#X obj 637 356 isInside 35 32;
#X msg 637 400 question Nom du nouveau mode \, show;
#X obj 637 442 route out;
#X obj 28 211 poftranslate -100 190;
#X obj 260 44 inlet;
#X obj 667 167 t a a;
#X obj 694 242 pofcolor 1 1 1 0.5;
#X obj 667 196 pofcolor 0 0 0 1;
#X floatatom 741 122 5 0 0 0 - - -, f 5;
#X floatatom 800 172 5 0 0 0 - - -, f 5;
#X floatatom 852 207 5 0 0 0 - - -, f 5;
#X msg 754 169 draw 1;
#X obj 695 266 poftouch 35 32;
#X msg 846 306 0;
#X msg 877 306 1;
#X obj 850 333 tgl 15 0 empty empty empty 17 7 0 10 -262144 -1 -1 0
1;
#X obj 850 353 max 0.5;
#X obj 941 304 isInside 50 32;
#X obj 871 280 route up down move;
#X obj 930 362 b;
#X obj 930 341 isInside 35 32;
#X obj 667 145 poftranslate 100 190;
#X obj 260 119 pofvisible;
#X obj 373 161 loadbang;
#X obj 813 128 loadbang;
#X obj 667 219 pofimage 64px-Refresh_font_awesome.svg.png 29;
#X obj 930 383 s modes-update-all;
#X obj 383 199 poftranslate 0 190;
#X msg 282 393 \; page modeEdit;
#X connect 0 0 61 0;
#X connect 1 0 3 0;
#X connect 1 1 2 0;
#X connect 2 0 10 0;
#X connect 3 0 21 0;
#X connect 4 0 17 0;
#X connect 4 0 16 0;
#X connect 5 0 66 1;
#X connect 6 0 10 1;
#X connect 7 0 10 2;
#X connect 8 0 21 0;
#X connect 9 0 10 0;
#X connect 10 1 34 0;
#X connect 11 0 13 0;
#X connect 11 1 12 0;
#X connect 12 0 19 0;
#X connect 13 0 20 0;
#X connect 14 0 19 1;
#X connect 15 0 19 2;
#X connect 16 0 19 0;
#X connect 17 0 20 0;
#X connect 18 0 42 1;
#X connect 19 1 27 0;
#X connect 22 0 24 0;
#X connect 23 0 24 0;
#X connect 24 0 25 0;
#X connect 25 0 12 4;
#X connect 26 0 23 0;
#X connect 26 1 22 0;
#X connect 27 0 22 0;
#X connect 27 0 28 0;
#X connect 27 1 23 0;
#X connect 27 2 26 0;
#X connect 28 0 67 0;
#X connect 29 0 31 0;
#X connect 30 0 31 0;
#X connect 31 0 32 0;
#X connect 32 0 2 4;
#X connect 33 0 30 0;
#X connect 33 1 29 0;
#X connect 34 0 29 0;
#X connect 34 0 39 0;
#X connect 34 1 30 0;
#X connect 34 2 33 0;
#X connect 36 0 40 0;
#X connect 37 0 41 0;
#X connect 39 0 36 0;
#X connect 40 0 37 0;
#X connect 41 0 38 0;
#X connect 42 0 11 0;
#X connect 43 0 61 0;
#X connect 44 0 46 0;
#X connect 44 1 45 0;
#X connect 45 0 51 0;
#X connect 46 0 64 0;
#X connect 47 0 60 1;
#X connect 48 0 51 1;
#X connect 49 0 51 2;
#X connect 50 0 51 0;
#X connect 51 1 57 0;
#X connect 52 0 54 0;
#X connect 53 0 54 0;
#X connect 54 0 55 0;
#X connect 55 0 45 4;
#X connect 56 0 53 0;
#X connect 56 1 52 0;
#X connect 57 0 52 0;
#X connect 57 0 59 0;
#X connect 57 1 53 0;
#X connect 57 2 56 0;
#X connect 58 0 65 0;
#X connect 59 0 58 0;
#X connect 60 0 44 0;
#X connect 61 0 42 0;
#X connect 61 0 60 0;
#X connect 61 0 66 0;
#X connect 62 0 8 0;
#X connect 62 0 9 0;
#X connect 63 0 50 0;
#X connect 66 0 1 0;
#X restore 209 363 pd ADMIN;
#X connect 0 0 14 0;
#X connect 2 0 8 0;
#X connect 5 0 7 0;
#X connect 7 0 8 0;
#X connect 7 1 6 0;
#X connect 9 0 10 0;
#X connect 11 0 12 0;
#X connect 12 0 13 0;
#X connect 13 0 8 0;
#X connect 14 0 26 0;
#X connect 14 1 35 0;
#X connect 15 0 24 2;
#X connect 16 0 17 0;
#X connect 18 0 17 0;
#X connect 19 0 18 0;
#X connect 20 0 36 0;
#X connect 21 0 35 2;
#X connect 22 0 36 2;
#X connect 23 0 24 1;
#X connect 24 0 16 0;
#X connect 25 0 4 0;
#X connect 26 0 27 0;
#X connect 26 1 25 0;
#X connect 27 0 41 0;
#X connect 27 0 44 0;
#X connect 27 1 32 0;
#X connect 28 0 29 0;
#X connect 30 0 29 0;
#X connect 31 0 30 0;
#X connect 32 0 37 0;
#X connect 32 0 42 0;
#X connect 33 0 39 2;
#X connect 34 0 42 2;
#X connect 35 0 20 0;
#X connect 37 0 38 0;
#X connect 41 0 28 0;
#X connect 42 0 39 0;
#X connect 43 0 7 0;
