#N canvas 519 75 794 400 10;
#X obj 174 26 inlet~;
#X obj 98 232 outlet~;
#X obj 243 236 outlet~;
#X obj 295 136 *~;
#X obj 325 78 pow 2;
#X obj 361 287 OutMusic~;
#X obj 387 78 min 0.5;
#X obj 325 55 r fx-fx-1;
#X obj 387 54 r fx-param-1;
#X obj 325 101 * 2;
#X obj 387 97 * 180;
#X floatatom 446 189 5 0 0 0 - - -, f 5;
#X obj 372 205 bob~;
#X floatatom 580 184 5 0 200 0 - - -, f 5;
#X obj 580 206 / 25;
#X floatatom 489 67 5 0 150 0 - - -, f 5;
#X obj 489 89 mtof;
#X obj 490 134 pack 0 50;
#X obj 490 159 line~;
#X floatatom 489 112 7 0 0 0 - - -, f 7;
#X obj 580 133 loadbang;
#X obj 579 234 line~;
#X msg 489 43 69;
#X obj 547 39 max 0;
#X obj 547 17 - 0.5;
#X obj 547 61 * 2;
#X obj 372 184 *~;
#X obj 589 57 * 50;
#X obj 589 79 clip 0 1;
#X msg 580 160 75;
#X obj 361 258 rev2~ 90 90 3000 11;
#X obj 547 106 + 50;
#X obj 547 84 * 74;
#X connect 0 0 1 0;
#X connect 0 0 2 0;
#X connect 0 0 3 0;
#X connect 3 0 26 0;
#X connect 3 0 30 0;
#X connect 4 0 9 0;
#X connect 6 0 10 0;
#X connect 7 0 4 0;
#X connect 8 0 6 0;
#X connect 8 0 24 0;
#X connect 9 0 3 1;
#X connect 10 0 30 2;
#X connect 11 0 30 4;
#X connect 12 0 30 0;
#X connect 13 0 14 0;
#X connect 14 0 21 0;
#X connect 15 0 16 0;
#X connect 16 0 19 0;
#X connect 17 0 18 0;
#X connect 18 0 12 1;
#X connect 19 0 17 0;
#X connect 20 0 29 0;
#X connect 21 0 12 2;
#X connect 22 0 15 0;
#X connect 23 0 25 0;
#X connect 23 0 27 0;
#X connect 24 0 23 0;
#X connect 25 0 32 0;
#X connect 26 0 12 0;
#X connect 27 0 28 0;
#X connect 28 0 26 1;
#X connect 29 0 13 0;
#X connect 30 0 5 0;
#X connect 30 1 5 1;
#X connect 31 0 15 0;
#X connect 32 0 31 0;
