#N canvas 523 75 853 560 10;
#X obj 174 26 inlet~;
#X obj 90 343 outlet~;
#X obj 234 333 outlet~;
#X obj 295 136 *~;
#X obj 325 78 pow 2;
#X obj 342 347 OutMusic~;
#X obj 325 101 * 2;
#X floatatom 474 316 5 0 0 0 - - -, f 5;
#X obj 315 278 bob~;
#X floatatom 654 207 5 0 200 0 - - -, f 5;
#X obj 654 229 / 25;
#X floatatom 472 66 5 0 150 0 - - -, f 5;
#X obj 472 88 mtof;
#X obj 473 133 pack 0 50;
#X obj 473 158 line~;
#X floatatom 472 111 7 0 0 0 - - -, f 7;
#X obj 654 156 loadbang;
#X obj 654 251 line~;
#X msg 472 42 69;
#X obj 547 39 max 0;
#X obj 547 17 - 0.5;
#X obj 547 61 * 2;
#X obj 610 100 *~;
#X obj 589 57 * 50;
#X obj 589 79 clip 0 1;
#X msg 654 183 75;
#X obj 547 106 + 50;
#X obj 547 84 * 74;
#X obj 325 55 r fx-fx-2;
#X obj 387 54 r fx-param-2;
#X obj 446 203 *~;
#X obj 502 227 *~ 0.5;
#X obj 502 247 +~ 1;
#X obj 240 99 hip~ 500;
#X obj 503 204 osc~ 0.3;
#X obj 387 78 min 0;
#X obj 387 109 * 70;
#X floatatom 575 214 5 0 0 0 - - -, f 5;
#X obj 538 176 max 0.3;
#X obj 538 154 * 0.7;
#X obj 342 319 rev2~ 90 90 5000 11;
#X floatatom 154 285 5 0 0 0 - - -, f 5;
#X obj 127 311 delread~ \$0-d 20;
#X obj 125 258 delwrite~ \$0-d 20;
#X obj 512 375 route 0;
#X obj 634 443 b;
#X obj 551 399 unpack f f;
#X obj 608 419 sel 0;
#X obj 634 489 line~;
#X obj 295 204 *~;
#X obj 511 355 r song-midi-drum-2;
#X obj 699 489 line~;
#X msg 634 468 0.5 \, 0 350;
#X msg 699 468 0.5 \, 0 100;
#X connect 0 0 1 0;
#X connect 0 0 2 0;
#X connect 0 0 33 0;
#X connect 3 0 49 0;
#X connect 4 0 6 0;
#X connect 6 0 3 1;
#X connect 7 0 40 4;
#X connect 8 0 2 0;
#X connect 8 0 40 0;
#X connect 8 0 43 0;
#X connect 9 0 10 0;
#X connect 10 0 17 0;
#X connect 11 0 12 0;
#X connect 12 0 15 0;
#X connect 13 0 14 0;
#X connect 14 0 30 0;
#X connect 15 0 13 0;
#X connect 16 0 25 0;
#X connect 17 0 8 2;
#X connect 18 0 11 0;
#X connect 19 0 21 0;
#X connect 19 0 23 0;
#X connect 20 0 19 0;
#X connect 21 0 27 0;
#X connect 23 0 24 0;
#X connect 24 0 22 1;
#X connect 25 0 9 0;
#X connect 26 0 11 0;
#X connect 27 0 26 0;
#X connect 28 0 4 0;
#X connect 29 0 35 0;
#X connect 29 0 27 0;
#X connect 29 0 39 0;
#X connect 30 0 8 1;
#X connect 31 0 32 0;
#X connect 32 0 30 1;
#X connect 33 0 3 0;
#X connect 34 0 31 0;
#X connect 35 0 36 0;
#X connect 36 0 40 2;
#X connect 38 0 34 0;
#X connect 38 0 37 0;
#X connect 39 0 38 0;
#X connect 40 0 5 0;
#X connect 40 1 5 1;
#X connect 41 0 42 0;
#X connect 42 0 1 0;
#X connect 44 1 46 0;
#X connect 45 0 52 0;
#X connect 45 0 53 0;
#X connect 46 1 47 0;
#X connect 47 1 45 0;
#X connect 48 0 49 1;
#X connect 49 0 8 0;
#X connect 50 0 44 0;
#X connect 51 0 49 1;
#X connect 52 0 48 0;
#X connect 53 0 51 0;
