#N canvas 525 75 794 448 10;
#X obj 174 26 inlet~;
#X obj 90 343 outlet~;
#X obj 234 333 outlet~;
#X obj 295 136 *~;
#X obj 325 78 pow 2;
#X obj 342 347 OutMusic~;
#X obj 325 101 * 2;
#X floatatom 474 316 5 0 0 0 - - -, f 5;
#X obj 315 278 bob~;
#X floatatom 654 207 5 0 200 0 - - -, f 5;
#X obj 654 229 / 25;
#X floatatom 472 66 5 0 150 0 - - -, f 5;
#X obj 472 88 mtof;
#X obj 473 133 pack 0 50;
#X obj 473 158 line~;
#X floatatom 472 111 7 0 0 0 - - -, f 7;
#X obj 654 156 loadbang;
#X obj 654 251 line~;
#X msg 472 42 69;
#X obj 547 39 max 0;
#X obj 547 17 - 0.5;
#X obj 547 61 * 2;
#X obj 610 100 *~;
#X obj 589 57 * 50;
#X obj 589 79 clip 0 1;
#X obj 547 106 + 50;
#X obj 547 84 * 74;
#X obj 446 203 *~;
#X obj 502 227 *~ 0.5;
#X obj 502 247 +~ 1;
#X obj 240 99 hip~ 500;
#X obj 503 204 osc~ 0.3;
#X obj 387 78 min 0;
#X floatatom 575 214 5 0 0 0 - - -, f 5;
#X floatatom 154 285 5 0 0 0 - - -, f 5;
#X obj 127 311 delread~ \$0-d 20;
#X obj 125 258 delwrite~ \$0-d 20;
#X obj 325 55 r fx-fx-4;
#X obj 387 54 r fx-param-4;
#X floatatom 366 225 5 0 0 0 - - -, f 5;
#X obj 387 111 * 10;
#X obj 387 135 + 85;
#X obj 538 176 max 0.1;
#X obj 538 154 * 0.3;
#X obj 342 319 rev2~ 90 90 5000 4;
#X msg 654 183 65;
#X connect 0 0 1 0;
#X connect 0 0 2 0;
#X connect 0 0 30 0;
#X connect 3 0 8 0;
#X connect 4 0 6 0;
#X connect 6 0 3 1;
#X connect 7 0 44 4;
#X connect 8 0 2 0;
#X connect 8 0 36 0;
#X connect 8 0 44 0;
#X connect 9 0 10 0;
#X connect 10 0 17 0;
#X connect 11 0 12 0;
#X connect 12 0 15 0;
#X connect 13 0 14 0;
#X connect 14 0 27 0;
#X connect 15 0 13 0;
#X connect 16 0 45 0;
#X connect 17 0 8 2;
#X connect 18 0 11 0;
#X connect 19 0 21 0;
#X connect 19 0 23 0;
#X connect 20 0 19 0;
#X connect 21 0 26 0;
#X connect 23 0 24 0;
#X connect 24 0 22 1;
#X connect 25 0 11 0;
#X connect 26 0 25 0;
#X connect 27 0 8 1;
#X connect 28 0 29 0;
#X connect 29 0 27 1;
#X connect 30 0 3 0;
#X connect 31 0 28 0;
#X connect 32 0 40 0;
#X connect 34 0 35 0;
#X connect 35 0 1 0;
#X connect 37 0 4 0;
#X connect 38 0 32 0;
#X connect 38 0 26 0;
#X connect 38 0 43 0;
#X connect 39 0 44 2;
#X connect 40 0 41 0;
#X connect 41 0 44 2;
#X connect 42 0 31 0;
#X connect 42 0 33 0;
#X connect 43 0 42 0;
#X connect 44 0 5 0;
#X connect 44 1 5 1;
#X connect 45 0 9 0;
