#N canvas 10 75 491 369 10;
#X obj 167 61 inlet~;
#X obj 100 314 outlet~;
#X obj 245 318 outlet~;
#X obj 218 157 *~;
#X obj 268 67 pow 2;
#X obj 219 215 echo 500 0.2;
#X obj 326 177 * 0.2;
#X obj 268 88 * 0.5;
#X obj 370 175 * 20;
#X obj 370 198 + 10;
#X obj 268 42 r fx-fx-5;
#X obj 347 128 r fx-param-5;
#X obj 285 178 * 200;
#X obj 219 185 bp~ 500 1;
#X msg 268 110 \$1 5;
#X obj 268 131 line~;
#X obj 266 255 echo 25;
#X connect 0 0 1 0;
#X connect 0 0 2 0;
#X connect 0 0 3 0;
#X connect 3 0 13 0;
#X connect 3 0 16 0;
#X connect 4 0 7 0;
#X connect 5 0 1 0;
#X connect 5 0 16 0;
#X connect 6 0 5 2;
#X connect 7 0 14 0;
#X connect 8 0 9 0;
#X connect 9 0 16 1;
#X connect 10 0 4 0;
#X connect 11 0 6 0;
#X connect 11 0 8 0;
#X connect 11 0 12 0;
#X connect 12 0 5 1;
#X connect 13 0 5 0;
#X connect 14 0 15 0;
#X connect 15 0 3 1;
#X connect 16 0 2 0;
