#N canvas 682 247 620 559 10;
#X obj 111 23 inlet head;
#X obj 192 86 poftranslate;
#X obj 201 63 nbx 5 14 -1e+37 1e+37 0 1 empty empty empty 0 -8 0 10
-262144 -1 -1 79 256;
#X obj 260 63 nbx 5 14 -1e+37 1e+37 0 1 empty empty empty 0 -8 0 10
-262144 -1 -1 -18 256;
#X obj 194 150 tgl 15 0 empty empty empty 17 7 0 10 -262144 -1 -1 0
1;
#X obj 58 91 poftranslate;
#X obj 67 68 nbx 5 14 -1e+37 1e+37 0 1 empty empty empty 0 -8 0 10
-262144 -1 -1 27 256;
#X obj 126 68 nbx 5 14 -1e+37 1e+37 0 1 empty empty empty 0 -8 0 10
-262144 -1 -1 31 256;
#X obj 70 207 tgl 15 0 empty empty empty 17 7 0 10 -262144 -1 -1 0
1;
#X obj 262 166 tgl 15 0 empty empty empty 17 7 0 10 -262144 -1 -1 0
1;
#X obj 58 161 poftranslate;
#X obj 80 141 nbx 5 14 -1e+37 1e+37 0 1 empty empty empty 0 -8 0 10
-262144 -1 -1 -128 256;
#X obj 70 186 imageTouchOnOff song/PlaySong 0.3;
#X obj 82 289 tgl 15 0 empty empty empty 17 7 0 10 -262144 -1 -1 0
1;
#X obj 82 269 imageTouch song/StopSong.png 0.3;
#X obj 58 244 poftranslate 49;
#X obj 82 373 tgl 15 0 empty empty empty 17 7 0 10 -262144 -1 -1 0
1;
#X obj 58 328 poftranslate 49;
#X obj 82 353 imageTouchOnOff song/ChoixSong 0.3;
#X obj 281 332 tgl 15 0 empty empty empty 17 7 0 10 -262144 -1 -1 0
1;
#X obj 81 467 tgl 15 0 empty empty empty 17 7 0 10 -262144 -1 -1 0
1;
#X obj 270 424 tgl 15 0 empty empty empty 17 7 0 10 -262144 -1 -1 0
1;
#X obj 81 445 imageTouchOnOff song/RecSong 0.3;
#X obj 472 319 pofcolor 0 0 0 0.2;
#X obj 484 354 pofrect 200 100;
#X floatatom 291 91 5 0 0 0 - - -, f 5;
#X obj 193 131 imageTouch song/MixTape.png 0.18;
#X obj 404 78 poftranslate;
#X obj 413 55 nbx 5 14 -1e+37 1e+37 0 1 empty empty empty 0 -8 0 10
-262144 -1 -1 -50 256;
#X obj 472 55 nbx 5 14 -1e+37 1e+37 0 1 empty empty empty 0 -8 0 10
-262144 -1 -1 4 256;
#X floatatom 528 94 5 0 0 0 - - -, f 5;
#X obj 192 36 t a a;
#X obj 208 382 sel 0;
#X obj 208 404 s song-choix-open;
#X obj 264 218 sel 1;
#X obj 295 270 s song-play;
#X obj 176 292 sel 1;
#X obj 176 314 s song-stop;
#X obj 261 145 r song-playing;
#X obj 351 171 metro 250;
#X obj 350 198 r song-playing;
#X obj 350 220 == 0;
#X obj 335 241 f;
#X floatatom 133 388 5 0 0 0 - - -, f 5;
#X obj 58 417 poftranslate 80;
#X obj 404 125 pofimage SongLegend.png 65 85;
#X obj 58 119 fixScaleX;
#X obj 192 109 fixScaleX;
#X obj 404 99 fixScaleX;
#X connect 0 0 5 0;
#X connect 0 0 31 0;
#X connect 1 0 47 0;
#X connect 2 0 1 1;
#X connect 3 0 1 2;
#X connect 5 0 46 0;
#X connect 6 0 5 1;
#X connect 7 0 5 2;
#X connect 8 0 34 0;
#X connect 9 0 12 2;
#X connect 10 0 12 0;
#X connect 10 0 15 0;
#X connect 11 0 10 1;
#X connect 12 0 8 0;
#X connect 13 0 36 0;
#X connect 14 0 13 0;
#X connect 15 0 14 0;
#X connect 15 0 17 0;
#X connect 16 0 19 0;
#X connect 16 0 32 0;
#X connect 17 0 18 0;
#X connect 17 0 44 0;
#X connect 18 0 16 0;
#X connect 19 0 18 2;
#X connect 20 0 21 0;
#X connect 21 0 22 2;
#X connect 22 0 20 0;
#X connect 23 0 24 0;
#X connect 25 0 26 1;
#X connect 26 0 4 0;
#X connect 27 0 48 0;
#X connect 28 0 27 1;
#X connect 29 0 27 2;
#X connect 30 0 45 1;
#X connect 31 0 1 0;
#X connect 31 1 27 0;
#X connect 32 0 33 0;
#X connect 34 0 35 0;
#X connect 36 0 37 0;
#X connect 38 0 9 0;
#X connect 40 0 41 0;
#X connect 41 0 42 1;
#X connect 43 0 44 1;
#X connect 44 0 22 0;
#X connect 46 0 10 0;
#X connect 47 0 26 0;
#X connect 48 0 45 0;
