#N canvas 299 420 467 332 10;
#X obj 149 8 r song-midi-drum-\$1;
#X obj 199 163 clip 0 1;
#X obj 199 138 / 128;
#X obj 122 127 tgl 15 0 empty empty empty 17 7 0 10 -262144 -1 -1 0
1;
#X obj 139 203 vox \$1;
#X obj 139 152 == 0;
#X obj 130 234 *~;
#X obj 131 267 outlet~;
#X obj 199 212 line~;
#X obj 72 203 vox \$1;
#X msg 78 123 0;
#X msg 117 14 100;
#X floatatom 289 75 5 0 0 0 - - -, f 5;
#X msg 199 187 \$1 1;
#X obj 197 115 unpack f f;
#X msg 148 28 \$2 \$1;
#X obj 133 58 route 0;
#X obj 153 87 t b a;
#X obj 140 177 *;
#X obj 85 173 *;
#X connect 0 0 15 0;
#X connect 1 0 13 0;
#X connect 2 0 1 0;
#X connect 3 0 5 0;
#X connect 3 0 19 0;
#X connect 4 0 6 0;
#X connect 5 0 18 0;
#X connect 6 0 7 0;
#X connect 8 0 6 1;
#X connect 9 0 6 0;
#X connect 10 0 9 0;
#X connect 10 0 4 0;
#X connect 11 0 16 0;
#X connect 13 0 8 0;
#X connect 14 0 2 0;
#X connect 14 1 18 1;
#X connect 14 1 19 1;
#X connect 15 0 16 0;
#X connect 16 1 17 0;
#X connect 17 0 3 0;
#X connect 17 1 12 0;
#X connect 17 1 14 0;
#X connect 18 0 4 0;
#X connect 19 0 9 0;
