#N canvas 322 398 451 431 10;
#X obj 148 284 tabread4~ set-table-\$1;
#X obj 147 257 line~;
#X obj 147 107 f \$1;
#X obj 147 127 tabread set-table-length;
#X obj 90 28 inlet stop/pitch;
#X obj 163 318 line~;
#X obj 147 340 *~;
#X obj 147 85 t b f;
#X obj 147 149 t f f;
#X obj 174 192 / 44.1;
#X obj 147 212 pack f f;
#X msg 147 233 0 \, \$1 \$2;
#X obj 341 245 del;
#X obj 341 223 - 10;
#X msg 296 224 0 \, 1 2;
#X msg 341 266 0 10;
#X obj 296 199 t b f;
#X obj 296 288 t a;
#X obj 90 91 t b;
#X msg 266 253 0 5;
#X obj 90 127 del 5;
#X msg 90 151 stop;
#X msg 113 90 stop;
#X obj 147 365 outlet~;
#X obj 90 58 route 0;
#X obj 174 171 /;
#X connect 0 0 6 0;
#X connect 1 0 0 0;
#X connect 2 0 3 0;
#X connect 3 0 8 0;
#X connect 4 0 24 0;
#X connect 5 0 6 1;
#X connect 6 0 23 0;
#X connect 7 0 2 0;
#X connect 7 1 25 1;
#X connect 8 0 10 0;
#X connect 8 1 25 0;
#X connect 9 0 10 1;
#X connect 9 0 16 0;
#X connect 10 0 11 0;
#X connect 11 0 1 0;
#X connect 12 0 15 0;
#X connect 13 0 12 0;
#X connect 14 0 17 0;
#X connect 15 0 17 0;
#X connect 16 0 14 0;
#X connect 16 1 13 0;
#X connect 17 0 5 0;
#X connect 18 0 19 0;
#X connect 18 0 20 0;
#X connect 19 0 17 0;
#X connect 20 0 21 0;
#X connect 21 0 1 0;
#X connect 22 0 20 0;
#X connect 24 0 18 0;
#X connect 24 1 7 0;
#X connect 24 1 22 0;
#X connect 25 0 9 0;
