#N canvas 632 82 590 684 10;
#X obj 175 573 tabread4~ set-table-\$1;
#X obj 128 162 f \$1;
#X obj 128 182 tabread set-table-length;
#X obj 190 607 line~;
#X obj 176 630 *~;
#X obj 128 140 t b f;
#X obj 128 204 t f f;
#X obj 156 244 / 44.1;
#X obj 128 267 pack f f;
#X obj 322 380 del;
#X obj 322 358 - 10;
#X msg 322 401 0 10;
#X obj 274 334 t b f;
#X obj 274 444 t a;
#X obj 57 191 t b;
#X msg 242 357 0 5;
#X msg 90 191 stop;
#X obj 176 655 outlet~;
#X obj 156 223 /;
#X obj 82 27 inlet pitch vol;
#X obj 128 115 unpack f f;
#X obj 274 356 f;
#X msg 82 48 \$2 \$1;
#X obj 82 70 route 0;
#X msg 128 92 \$2 \$1;
#X msg 274 380 0 \, \$1 2;
#X obj 57 4 r all-note-off;
#X msg 290 84 1 1;
#X obj 110 413 phasor~;
#X obj 128 342 unpack f f;
#X msg 128 319 \$2 \$1;
#X obj 110 392 /;
#X msg 149 392 0;
#X msg 291 110 3 1;
#X obj 290 135 bng 15 250 50 0 empty empty empty 17 7 0 10 -262144
-1 -1;
#X obj 175 447 min~ 0.5;
#X obj 176 469 -~ 0.5;
#X obj 176 493 *~ -2;
#X obj 175 551 *~;
#X msg 110 370 1000 \$1;
#X obj 175 522 +~;
#X obj 210 400 del;
#X obj 210 377 * 0.5;
#X obj 210 420 -2;
#X connect 0 0 4 0;
#X connect 1 0 2 0;
#X connect 2 0 6 0;
#X connect 3 0 4 1;
#X connect 4 0 17 0;
#X connect 5 0 1 0;
#X connect 5 1 18 1;
#X connect 6 0 8 0;
#X connect 6 1 18 0;
#X connect 7 0 8 1;
#X connect 7 0 12 0;
#X connect 8 0 30 0;
#X connect 9 0 11 0;
#X connect 10 0 9 0;
#X connect 12 0 21 0;
#X connect 12 1 10 0;
#X connect 13 0 3 0;
#X connect 14 0 15 0;
#X connect 15 0 13 0;
#X connect 18 0 7 0;
#X connect 19 0 22 0;
#X connect 20 0 5 0;
#X connect 20 1 21 1;
#X connect 21 0 25 0;
#X connect 22 0 23 0;
#X connect 23 0 14 0;
#X connect 23 1 24 0;
#X connect 23 1 16 0;
#X connect 24 0 20 0;
#X connect 25 0 13 0;
#X connect 26 0 14 0;
#X connect 27 0 22 0;
#X connect 28 0 35 0;
#X connect 28 0 40 0;
#X connect 29 0 39 0;
#X connect 29 0 42 0;
#X connect 29 1 32 0;
#X connect 29 1 38 1;
#X connect 30 0 29 0;
#X connect 31 0 28 0;
#X connect 32 0 28 1;
#X connect 32 0 37 1;
#X connect 33 0 22 0;
#X connect 34 0 14 0;
#X connect 35 0 36 0;
#X connect 36 0 37 0;
#X connect 37 0 40 0;
#X connect 38 0 0 0;
#X connect 39 0 31 0;
#X connect 40 0 38 0;
#X connect 41 0 43 0;
#X connect 42 0 41 0;
#X connect 43 0 37 1;
