#N canvas 793 179 641 686 10;
#X obj 162 25 inlet head;
#X floatatom 500 193 5 0 0 0 - - -, f 5;
#X obj 407 267 pofimage VU_meter.png 230;
#X floatatom 315 283 5 0 0 0 - - -, f 5;
#X floatatom 112 343 5 0 0 0 - - -, f 5;
#X floatatom 123 368 5 0 0 0 - - -, f 5;
#X floatatom 201 270 5 0 0 0 - - -, f 5;
#X floatatom 254 266 5 0 0 0 - - -, f 5;
#X floatatom 375 171 5 0 0 0 - - -, f 5;
#X floatatom 414 175 5 0 0 0 - - -, f 5;
#X obj 245 418 tgl 15 0 empty empty empty 17 7 0 10 -262144 -1 -1 0
1;
#X obj 242 458 sel 0 1;
#X obj 38 203 t b b;
#X obj 38 172 loadbang;
#X obj 203 126 tgl 15 0 empty empty empty 17 7 0 10 -262144 -1 -1 0
1;
#X obj 180 362 poftouch 75 75;
#X obj 78 479 poftouch 75 75;
#X obj 279 365 route down;
#X obj 279 384 b;
#X obj 162 502 route down;
#X obj 162 521 b;
#X obj 520 293 r rec-level;
#X msg 38 226 reserve PlayOn.png \, reserve PlayOff.png;
#X msg 65 250 reserve RecordOn.png \, reserve RecordOff.png;
#X msg 245 505 set RecordOn.png;
#X msg 241 482 set RecordOff.png;
#X msg 222 172 set PlayOff.png;
#X msg 203 195 set PlayOn.png;
#X obj 162 49 t a a;
#X obj 401 54 t a a;
#X floatatom 469 22 5 0 0 0 - - -, f 5;
#X floatatom 539 23 5 0 0 0 - - -, f 5;
#X obj 89 386 poftranslate 65 60;
#X obj 181 291 poftranslate -85 60;
#X floatatom 498 18 5 0 0 0 - - -, f 5;
#X obj 428 76 pofcolor 0 0 0 1;
#X obj 428 101 pofrect 265 220 10;
#X obj 385 123 pofcolor 1 1 1 0.5;
#X obj 385 148 pofrect 255 210 6;
#X obj 368 195 poftranslate 0 -32;
#X obj 291 447 r rec-light;
#X obj 181 342 pofimage PlayOff.png 75;
#X obj 77 447 pofimage RecordOff.png 75;
#X obj 162 547 s \$1-rec;
#X obj 235 122 r play-light;
#X obj 279 404 s \$1-play;
#X obj 203 147 sel 1 0;
#N canvas 100 546 450 300 thres 0;
#X obj 85 20 inlet;
#X msg 172 38 draw \$1;
#X obj 173 17 tgl 15 0 empty empty empty 17 7 0 10 -262144 -1 -1 0
1;
#X obj 85 69 poftouch 165 72;
#X obj 172 99 route move down;
#X obj 172 128 unpack f;
#X obj 229 129 unpack f;
#X obj 172 149 t f f;
#X obj 179 179 -;
#X obj 210 224 r rec-autorec-thres;
#X floatatom 134 226 5 0 0 0 - - -, f 5;
#X obj 179 226 +;
#X obj 179 249 clip 50 100;
#X obj 179 273 s rec-autorec-thres;
#X obj 179 202 * 0.1;
#X connect 0 0 3 0;
#X connect 1 0 3 0;
#X connect 2 0 1 0;
#X connect 3 1 4 0;
#X connect 4 0 5 0;
#X connect 4 1 6 0;
#X connect 5 0 7 0;
#X connect 6 0 8 1;
#X connect 7 0 8 1;
#X connect 7 1 8 0;
#X connect 8 0 10 0;
#X connect 8 0 14 0;
#X connect 9 0 11 1;
#X connect 11 0 12 0;
#X connect 12 0 13 0;
#X connect 14 0 11 0;
#X restore 366 553 pd thres;
#X obj 520 317 - 60;
#X obj 520 342 / 30;
#X obj 368 245 t a a a;
#N canvas 4 75 450 299 aiguille 0;
#X floatatom 135 168 5 0 0 0 - - -, f 5;
#X floatatom 179 168 5 0 0 0 - - -, f 5;
#X obj 103 215 pofrect 2 50;
#X floatatom 136 60 5 0 0 0 - - -, f 5;
#X floatatom 152 76 5 0 0 0 - - -, f 5;
#X obj 103 144 pofrotate;
#X floatatom 173 127 5 0 0 0 - - -, f 5;
#X obj 103 99 poftranslate 0 90;
#X obj 103 191 poftranslate 0 -89;
#X obj 103 31 inlet;
#X obj 252 68 clip 0 1;
#X obj 252 92 * 80;
#X obj 252 115 - 40;
#X obj 252 161 line;
#X msg 252 137 \$1 100;
#X obj 252 39 inlet;
#X connect 0 0 8 1;
#X connect 1 0 8 2;
#X connect 3 0 7 1;
#X connect 4 0 7 2;
#X connect 5 0 8 0;
#X connect 6 0 5 1;
#X connect 7 0 5 0;
#X connect 8 0 2 0;
#X connect 9 0 7 0;
#X connect 10 0 11 0;
#X connect 11 0 12 0;
#X connect 12 0 14 0;
#X connect 13 0 5 1;
#X connect 14 0 13 0;
#X connect 15 0 10 0;
#X restore 387 343 pd aiguille;
#X obj 387 311 pofcolor 0.2 0.2 0 1;
#X obj 492 458 - 60;
#X obj 492 483 / 30;
#N canvas 4 75 450 299 aiguille 0;
#X floatatom 135 168 5 0 0 0 - - -, f 5;
#X floatatom 179 168 5 0 0 0 - - -, f 5;
#X obj 103 215 pofrect 2 50;
#X floatatom 136 60 5 0 0 0 - - -, f 5;
#X floatatom 152 76 5 0 0 0 - - -, f 5;
#X obj 103 144 pofrotate;
#X floatatom 173 127 5 0 0 0 - - -, f 5;
#X obj 103 99 poftranslate 0 90;
#X obj 103 191 poftranslate 0 -89;
#X obj 103 31 inlet;
#X obj 252 68 clip 0 1;
#X obj 252 92 * 80;
#X obj 252 115 - 40;
#X obj 252 161 line;
#X msg 252 137 \$1 100;
#X obj 252 39 inlet;
#X connect 0 0 8 1;
#X connect 1 0 8 2;
#X connect 3 0 7 1;
#X connect 4 0 7 2;
#X connect 5 0 8 0;
#X connect 6 0 5 1;
#X connect 7 0 5 0;
#X connect 8 0 2 0;
#X connect 9 0 7 0;
#X connect 10 0 11 0;
#X connect 11 0 12 0;
#X connect 12 0 14 0;
#X connect 13 0 5 1;
#X connect 14 0 13 0;
#X connect 15 0 10 0;
#X restore 374 485 pd aiguille;
#X obj 492 434 r rec-autorec-thres;
#X obj 452 543 tgl 15 0 empty empty empty 17 7 0 10 -262144 -1 -1 0
1;
#X floatatom 553 486 5 0 0 0 - - -, f 5;
#X obj 374 461 pofcolor 0 1 0 0.7;
#X obj 507 371 t b f;
#X obj 478 373 >;
#X obj 478 395 change;
#X msg 403 395 0 1 0;
#X msg 421 413 1 0 0;
#X obj 394 434 unpack f f f;
#X obj 405 375 sel 1 0;
#X obj 88 410 fixScaleX;
#X obj 181 316 fixScaleX;
#X obj 368 218 fixScaleX;
#X connect 0 0 28 0;
#X connect 1 0 2 1;
#X connect 3 0 41 1;
#X connect 3 0 42 1;
#X connect 4 0 32 1;
#X connect 5 0 32 2;
#X connect 6 0 33 1;
#X connect 7 0 33 2;
#X connect 8 0 39 1;
#X connect 9 0 39 2;
#X connect 10 0 11 0;
#X connect 11 0 25 0;
#X connect 11 1 24 0;
#X connect 12 0 22 0;
#X connect 12 1 23 0;
#X connect 13 0 12 0;
#X connect 14 0 46 0;
#X connect 15 1 17 0;
#X connect 16 1 19 0;
#X connect 17 0 18 0;
#X connect 18 0 45 0;
#X connect 19 0 20 0;
#X connect 20 0 43 0;
#X connect 21 0 48 0;
#X connect 21 0 61 0;
#X connect 22 0 42 0;
#X connect 23 0 42 0;
#X connect 24 0 42 0;
#X connect 25 0 42 0;
#X connect 26 0 41 0;
#X connect 27 0 41 0;
#X connect 28 0 32 0;
#X connect 28 0 33 0;
#X connect 28 0 39 0;
#X connect 28 1 29 0;
#X connect 29 0 37 0;
#X connect 29 1 35 0;
#X connect 30 0 36 1;
#X connect 31 0 36 2;
#X connect 32 0 67 0;
#X connect 33 0 68 0;
#X connect 34 0 35 3;
#X connect 35 0 36 0;
#X connect 37 0 38 0;
#X connect 39 0 69 0;
#X connect 40 0 10 0;
#X connect 41 0 15 0;
#X connect 42 0 16 0;
#X connect 44 0 14 0;
#X connect 46 0 27 0;
#X connect 46 1 26 0;
#X connect 48 0 49 0;
#X connect 49 0 51 1;
#X connect 50 0 47 0;
#X connect 50 1 52 0;
#X connect 50 1 59 0;
#X connect 50 2 2 0;
#X connect 52 0 51 0;
#X connect 53 0 54 0;
#X connect 54 0 55 1;
#X connect 56 0 53 0;
#X connect 56 0 60 0;
#X connect 57 0 59 4;
#X connect 58 0 53 0;
#X connect 59 0 55 0;
#X connect 60 0 61 0;
#X connect 60 1 61 1;
#X connect 61 0 62 0;
#X connect 62 0 66 0;
#X connect 63 0 65 0;
#X connect 64 0 65 0;
#X connect 65 0 59 1;
#X connect 65 1 59 2;
#X connect 65 2 59 3;
#X connect 66 0 63 0;
#X connect 66 1 64 0;
#X connect 67 0 42 0;
#X connect 68 0 41 0;
#X connect 69 0 50 0;
